<?xml version="1.0" encoding="UTF-8" standalone="no" ?>
<!DOCTYPE svg PUBLIC "-//W3C//DTD SVG 1.1//EN" "http://www.w3.org/Graphics/SVG/1.1/DTD/svg11.dtd">
<svg xmlns="http://www.w3.org/2000/svg" xmlns:xlink="http://www.w3.org/1999/xlink" version="1.1" width="1280" height="1024" viewBox="0 0 1280 1024" xml:space="preserve">
<desc>Created with Fabric.js 4.4.0</desc>
<defs>
</defs>
<g transform="matrix(1 0 0 1 640 512)" id="background-logo"  >
<rect style="stroke: none; stroke-width: 0; stroke-dasharray: none; stroke-linecap: butt; stroke-dashoffset: 0; stroke-linejoin: miter; stroke-miterlimit: 4; fill: rgb(255,255,255); fill-opacity: 0; fill-rule: nonzero; opacity: 1;"  paint-order="stroke"  x="-640" y="-512" rx="0" ry="0" width="1280" height="1024" />
</g>
<g transform="matrix(1.4670382170215106 0 0 1.4670382170215106 640.8881578947369 467.5056109784059)" id="logo-logo"  >
<g style=""  paint-order="stroke"   >
		<g transform="matrix(0 0.4725009758203577 -1.1406787858967264 0 -0.003827726538645493 -70.84314009929972)"  >
<g style=""  paint-order="stroke"   >
		<g transform="matrix(1 0 0 1 0 0)"  >
<rect style="stroke: none; stroke-width: 1; stroke-dasharray: none; stroke-linecap: butt; stroke-dashoffset: 0; stroke-linejoin: miter; stroke-miterlimit: 4; fill: rgb(255,255,255); fill-rule: nonzero; opacity: 1;"  paint-order="stroke"  x="-100" y="-2.5" rx="0" ry="0" width="200" height="5" />
</g>
</g>
</g>
		<g transform="matrix(0.4091978483733666 0.23625048791017877 -0.5703393929483622 0.9878568061445547 -127.5554780262469 -4.5562718688352675)"  >
<g style=""  paint-order="stroke"   >
		<g transform="matrix(1 0 0 1 0 0)"  >
<rect style="stroke: none; stroke-width: 1; stroke-dasharray: none; stroke-linecap: butt; stroke-dashoffset: 0; stroke-linejoin: miter; stroke-miterlimit: 4; fill: rgb(255,255,255); fill-rule: nonzero; opacity: 1;"  paint-order="stroke"  x="-100" y="-2.5" rx="0" ry="0" width="200" height="5" />
</g>
</g>
</g>
		<g transform="matrix(0.40919784837336637 -0.23625048791017905 0.5703393929483641 0.9878568061445565 127.54782257316958 -4.556271868835296)"  >
<g style=""  paint-order="stroke"   >
		<g transform="matrix(1 0 0 1 0 0)"  >
<rect style="stroke: none; stroke-width: 1; stroke-dasharray: none; stroke-linecap: butt; stroke-dashoffset: 0; stroke-linejoin: miter; stroke-miterlimit: 4; fill: rgb(255,255,255); fill-rule: nonzero; opacity: 1;"  paint-order="stroke"  x="-100" y="-2.5" rx="0" ry="0" width="200" height="5" />
</g>
</g>
</g>
		<g transform="matrix(0.4725009758203577 0 0 1.1406787858967264 -140.96168128194424 115.2415407165937)"  >
<g style=""  paint-order="stroke"   >
		<g transform="matrix(1 0 0 1 0 0)"  >
<rect style="stroke: none; stroke-width: 1; stroke-dasharray: none; stroke-linecap: butt; stroke-dashoffset: 0; stroke-linejoin: miter; stroke-miterlimit: 4; fill: rgb(255,255,255); fill-rule: nonzero; opacity: 1;"  paint-order="stroke"  x="-100" y="-2.5" rx="0" ry="0" width="200" height="5" />
</g>
</g>
</g>
		<g transform="matrix(0.4725009758203577 0 0 1.1406787858967264 140.96168128194415 115.2415407165937)"  >
<g style=""  paint-order="stroke"   >
		<g transform="matrix(1 0 0 1 0 0)"  >
<rect style="stroke: none; stroke-width: 1; stroke-dasharray: none; stroke-linecap: butt; stroke-dashoffset: 0; stroke-linejoin: miter; stroke-miterlimit: 4; fill: rgb(255,255,255); fill-rule: nonzero; opacity: 1;"  paint-order="stroke"  x="-100" y="-2.5" rx="0" ry="0" width="200" height="5" />
</g>
</g>
</g>
</g>
</g>
<g transform="matrix(1.9211538461538462 0 0 1.9211538461538462 637.4246791497977 569.1240902206479)" id="text-logo-path"  >
<filter id="SVGID_659466" y="-77.26065048098947%" height="254.52130096197894%" x="-45.39618041446566%" width="190.79236082893132%" >
	<feGaussianBlur in="SourceAlpha" stdDeviation="12.5"></feGaussianBlur>
	<feOffset dx="0" dy="0" result="oBlur" ></feOffset>
	<feFlood flood-color="rgb(255,255,255)" flood-opacity="1"/>
	<feComposite in2="oBlur" operator="in" />
	<feMerge>
		<feMergeNode></feMergeNode>
		<feMergeNode in="SourceGraphic"></feMergeNode>
	</feMerge>
</filter>
<path style="stroke: rgb(255,255,255); stroke-width: 1; stroke-dasharray: none; stroke-linecap: butt; stroke-dashoffset: 0; stroke-linejoin: miter; stroke-miterlimit: 4; fill: rgb(255,255,255); fill-rule: nonzero; opacity: 1;filter: url(#SVGID_659466);"  paint-order="stroke"  transform=" translate(-50.53, 21.03)" d="M 38.13 0 L 22.4 -42.86 L 17.04 -42.86 L 1.31 0 L 6.95 0 L 10.89 -11 L 28.5 -11 L 32.43 0 Z M 19.72 -35.57 L 26.79 -15.73 L 12.6 -15.73 Z M 40.93 0.8 C 53.12 0.8 58.31 0.74 58.31 -13.22 L 58.31 -42.86 L 52.95 -42.86 L 52.95 -14.36 C 52.95 -4.84 49.82 -4.16 41.15 -4.79 Z M 99.75 0 L 78.83 -22.23 L 98.95 -42.86 L 92.11 -42.86 L 72.56 -23.03 L 72.56 -42.86 L 67.2 -42.86 L 67.2 0 L 72.56 0 L 72.56 -15.79 L 75.24 -18.53 L 92.8 0 Z" stroke-linecap="round" />
</g>
</svg>